<?xml version="1.0" encoding="UTF-8"?>
<svg width="13px" height="13px" viewBox="0 0 13 13" version="1.1" xmlns="http://www.w3.org/2000/svg" xmlns:xlink="http://www.w3.org/1999/xlink">
    <!-- Generator: Sketch 58 (84663) - https://sketch.com -->
    <title>cross</title>
    <desc>Created with Sketch.</desc>
    <g id="Page-1" stroke="none" stroke-width="1" fill="none" fill-rule="evenodd">
        <g id="Artboard" transform="translate(-955.000000, -219.000000)" fill="#CDCDCD" fill-rule="nonzero">
            <path d="M967.655755,220.260845 C967.252334,219.857418 966.598283,219.857439 966.194874,220.260845 L961.958317,224.497418 L957.721756,220.260866 C957.31835,219.857459 956.664301,219.857439 956.260878,220.260866 C955.857457,220.664293 955.85747,221.318346 956.260878,221.721752 L960.49743,225.958294 L956.260892,230.194825 C955.857486,230.598231 955.857472,231.252284 956.260892,231.655711 C956.664315,232.059138 957.318366,232.059118 957.721773,231.655711 L961.958317,227.419159 L966.194862,231.655732 C966.598266,232.059138 967.252319,232.059138 967.65574,231.655732 C968.059162,231.252305 968.059149,230.598252 967.655742,230.194846 L963.41919,225.958294 L967.655755,221.721731 C968.059164,221.318325 968.059178,220.664272 967.655755,220.260845 L967.655755,220.260845 Z" id="cross"></path>
        </g>
    </g>
</svg>