<?xml version="1.0" encoding="UTF-8"?>
<svg width="16px" height="16px" viewBox="0 0 16 16" version="1.1" xmlns="http://www.w3.org/2000/svg" xmlns:xlink="http://www.w3.org/1999/xlink">
    <!-- Generator: Sketch 58 (84663) - https://sketch.com -->
    <title>icon-gear</title>
    <desc>Created with Sketch.</desc>
    <defs>
        <path d="M15.4388075,8.28007327 L15.0599467,7.36082841 C15.0599467,7.36082841 15.9414645,5.33075514 15.8627531,5.25239161 L14.6970274,4.08966009 C14.6158252,4.00926114 12.6278644,4.93588439 12.6278644,4.93588439 L11.710229,4.55780582 C11.710229,4.55780582 10.9001992,2.5 10.7888574,2.5 L9.14314173,2.5 C9.02930912,2.5 8.27856187,4.56263993 8.27856187,4.56263993 L7.36291924,4.94122736 C7.36291924,4.94122736 5.33336098,4.0606554 5.25489867,4.1387645 L4.09066753,5.30353145 C4.00996345,5.38342153 4.9365659,7.37329534 4.9365659,7.37329534 L4.55795414,8.29050478 C4.55795414,8.29050478 2.5,9.10060045 2.5,9.20974964 L2.5,10.8571647 C2.5,10.9719113 4.56268679,11.7227254 4.56268679,11.7227254 L4.94129854,12.6391716 C4.94129854,12.6391716 4.06077713,14.6677183 4.137994,14.745573 L5.30371966,15.9113576 C5.38243105,15.9904844 7.37188636,15.0641156 7.37188636,15.0641156 L8.29001986,15.4437207 C8.29001986,15.4437207 9.10004974,17.5 9.21188966,17.5 L10.8581035,17.5 C10.9719361,17.5 11.7221852,15.4373601 11.7221852,15.4373601 L12.641066,15.0577549 C12.641066,15.0577549 14.6668879,15.9393446 14.7451011,15.8622532 L15.911325,14.6974863 C15.9920291,14.6165785 15.0634339,12.6277224 15.0634339,12.6277224 L15.4410493,11.7105129 C15.4410493,11.7105129 17.5,10.8993996 17.5,10.7887238 L17.5,9.14181763 C17.500498,9.0285976 15.4388075,8.28007327 15.4388075,8.28007327 Z M12.4049318,9.99898229 C12.4049318,11.3242927 11.3263865,12.4035722 10.0007472,12.4035722 C8.67610421,12.4035722 7.59606437,11.3242927 7.59606437,9.99898229 C7.59606437,8.6746896 8.67610421,7.59744555 10.0007472,7.59744555 C11.3268846,7.59795441 12.4049318,8.6746896 12.4049318,9.99898229 Z" id="path-1"></path>
    </defs>
    <g id="Symbols" stroke="none" stroke-width="1" fill="none" fill-rule="evenodd">
        <g id="column" transform="translate(-219.000000, -4.000000)">
            <g id="icon-gear">
                <g transform="translate(217.000000, 2.000000)">
                    <mask id="mask-2" fill="white">
                        <use xlink:href="#path-1"></use>
                    </mask>
                    <use id="icon" fill="#000000" fill-rule="nonzero" xlink:href="#path-1"></use>
                    <g id="white" mask="url(#mask-2)" fill="#FFFFFF" fill-rule="evenodd">
                        <rect id="Rectangle" x="0" y="0" width="20" height="20"></rect>
                    </g>
                </g>
            </g>
        </g>
    </g>
</svg>