<?xml version="1.0" encoding="UTF-8"?>
<svg width="86px" height="91px" viewBox="0 0 86 91" version="1.1" xmlns="http://www.w3.org/2000/svg" xmlns:xlink="http://www.w3.org/1999/xlink">
    <!-- Generator: Sketch 58 (84663) - https://sketch.com -->
    <title>trash</title>
    <desc>Created with Sketch.</desc>
    <g id="Page-1" stroke="none" stroke-width="1" fill="none" fill-rule="evenodd">
        <g id="Artboard" transform="translate(-604.000000, -319.000000)" fill="#000000" fill-rule="nonzero">
            <path d="M679.4,348.4 L676.3,406.2 C676.2,408.3 674.4,410 672.3,410 L621.7,410 C619.6,410 617.8,408.3 617.7,406.2 L614.6,348.4 C614.5,346.2 616.2,344.3 618.4,344.2 C620.6,344.1 622.5,345.8 622.6,348 L625.5,402 L668.6,402 L671.5,348 C671.6,345.8 673.5,344.1 675.7,344.2 C677.8,344.3 679.5,346.2 679.4,348.4 Z M690,335 C690,337.2 688.2,339 686,339 L608,339 C605.8,339 604,337.2 604,335 C604,332.8 605.8,331 608,331 L630,331 L630,322 C630,320.1 631.3,319 633.2,319 L660.8,319 C662.7,319 664,320.1 664,322 L664,331 L686,331 C688.2,331 690,332.8 690,335 Z M637,331 L657,331 L657,326 L637,326 L637,331 Z M638.7,396 C638.7,396 638.7,396 638.7,396 C640.7,396 642.2,394.1 642.2,392.2 L641.2,349 C641.2,347.1 639.6,345.5 637.6,345.5 C635.7,345.5 634.1,347.1 634.2,349.1 L635.2,392.4 C635.2,394.3 636.8,396 638.7,396 Z M655.2,396 C657.1,396 658.7,394.4 658.7,392.5 L659.7,349.3 C659.7,347.4 658.2,345.7 656.3,345.7 C654.3,345.7 652.8,347.2 652.7,349.1 L651.7,392.3 C651.6,394.3 653.2,396 655.2,396 C655.1,396 655.1,396 655.2,396 Z" id="trash"></path>
        </g>
    </g>
</svg>